<?xml version="1.0" standalone="no"?>
<!DOCTYPE svg PUBLIC "-//W3C//DTD SVG 20010904//EN"
 "http://www.w3.org/TR/2001/REC-SVG-20010904/DTD/svg10.dtd">
<svg version="1.0" xmlns="http://www.w3.org/2000/svg"
 width="833.000000pt" height="833.000000pt" viewBox="0 0 833.000000 833.000000"
 preserveAspectRatio="xMidYMid meet">
<metadata>
Created by potrace 1.14, written by Peter Selinger 2001-2017
</metadata>
<g transform="translate(0.000000,833.000000) scale(0.100000,-0.100000)"
fill="#000000" stroke="none">
<path d="M7535 6660 c-16 -4 -111 -29 -210 -55 -99 -26 -187 -48 -195 -50 -8
-2 -51 -13 -95 -24 -86 -23 -286 -75 -535 -140 -85 -22 -209 -54 -275 -71 -66
-18 -129 -34 -140 -37 -23 -5 -26 -6 -85 -22 -25 -7 -52 -14 -60 -16 -8 -2
-44 -11 -80 -20 -36 -9 -72 -19 -80 -21 -8 -1 -181 -46 -385 -100 -203 -53
-377 -98 -385 -99 -8 -2 -76 -20 -150 -40 -74 -20 -146 -38 -160 -41 -14 -3
-34 -8 -45 -11 -11 -4 -24 -8 -30 -9 -5 -1 -30 -7 -55 -14 -25 -7 -52 -14 -60
-15 -8 -2 -49 -13 -90 -24 -41 -11 -208 -54 -370 -96 -345 -89 -311 -80 -380
-100 -30 -8 -68 -17 -85 -20 -16 -3 -55 -13 -85 -21 -30 -9 -62 -18 -70 -19
-26 -6 -633 -164 -670 -174 -83 -24 -149 -41 -171 -45 -13 -3 -24 -5 -24 -6 0
-1 -7 -3 -15 -5 -14 -2 -71 -17 -470 -122 -74 -19 -142 -37 -150 -38 -120 -26
-390 -104 -439 -127 -185 -86 -228 -130 -574 -587 -160 -212 -364 -480 -451
-596 -88 -115 -221 -291 -296 -390 -75 -99 -144 -193 -152 -210 -22 -45 -22
-105 1 -142 27 -42 54 -59 129 -78 65 -17 78 -20 152 -35 25 -5 97 -20 160
-34 262 -58 436 -95 460 -100 14 -2 48 -10 75 -16 28 -6 61 -14 75 -16 22 -5
92 -20 430 -94 52 -11 111 -23 130 -26 19 -3 38 -8 41 -10 3 -2 19 -6 35 -8
16 -3 38 -8 49 -10 11 -3 85 -18 165 -36 80 -17 163 -35 185 -40 41 -9 125
-27 160 -35 20 -4 156 -33 185 -40 8 -2 51 -11 95 -20 44 -9 89 -19 100 -22
11 -2 31 -6 44 -9 13 -3 54 -12 90 -20 36 -8 138 -30 226 -49 88 -19 214 -46
280 -60 66 -15 129 -28 139 -30 11 -3 72 -16 136 -30 64 -14 125 -27 136 -29
25 -5 265 -57 284 -61 8 -2 58 -13 110 -24 52 -11 124 -27 160 -35 134 -29
356 -77 385 -82 17 -3 46 -9 65 -14 19 -5 98 -23 175 -39 207 -44 206 -44 250
-54 17 -4 39 -9 50 -11 49 -10 364 -78 395 -86 19 -5 49 -11 65 -14 17 -2 59
-11 95 -19 59 -14 160 -36 510 -111 63 -14 138 -30 165 -36 28 -7 61 -14 75
-16 14 -3 58 -12 99 -21 125 -27 219 -5 287 69 43 46 58 75 105 208 79 224
127 357 187 520 33 91 162 446 287 790 124 344 262 722 305 840 43 118 136
373 205 565 70 193 143 393 162 445 87 235 185 517 197 569 15 65 18 271 6
351 -5 30 -11 73 -14 95 -24 190 -64 286 -152 364 -37 32 -70 48 -155 76 -252
81 -384 106 -464 85z"/>
</g>
</svg>
